<svg width="87" height="62" viewBox="0 0 87 62" fill="none" xmlns="http://www.w3.org/2000/svg">
<rect width="87" height="62" rx="5" fill="#DE6161"/>
<path d="M50.8065 23H35.1935C34.3469 23.0009 33.5351 23.3372 32.9364 23.935C32.3377 24.5328 32.0009 25.3433 32 26.1887V35.8113C32 37.5694 33.4328 39 35.1935 39H50.8065C52.5672 39 54 37.5694 54 35.8113V26.1887C54 24.4306 52.5672 23 50.8065 23ZM49.8626 25.1258L48.8832 25.8981L43.66 30.0151C43.2697 30.3198 42.7303 30.3198 42.34 30.0151L37.3013 26.0399L36.1395 25.1258H49.8626ZM50.8065 36.8742H35.1935C34.6066 36.8742 34.129 36.3973 34.129 35.8113V26.256L41.02 31.6873C41.6019 32.1479 42.3045 32.3747 43 32.3747C43.6955 32.3747 44.3981 32.1479 44.98 31.6873L51.871 26.2581V35.8113C51.871 36.3973 51.3934 36.8742 50.8065 36.8742Z" fill="white"/>
</svg>
