<svg width="20" height="20" viewBox="0 0 20 20" fill="none" xmlns="http://www.w3.org/2000/svg">
<circle cx="10" cy="10" r="10" fill="white"/>
<path d="M10.036 9.32C11.188 9.32 11.608 8.972 11.608 8.144C11.608 7.352 11.224 6.98 10.264 6.98C9.292 6.98 8.836 7.352 8.788 8.192H7.42C7.612 6.776 8.752 5.768 10.276 5.768C11.908 5.768 13.024 6.716 13.024 8C13.024 8.78 12.544 9.488 11.608 9.812C12.736 10.064 13.264 10.772 13.264 11.744C13.264 13.088 12.076 14.12 10.324 14.12C8.632 14.12 7.492 13.148 7.336 11.672H8.692C8.752 12.56 9.304 12.908 10.324 12.908C11.44 12.908 11.848 12.464 11.848 11.66C11.848 10.88 11.524 10.484 10.252 10.484H9.352V9.32H10.036Z" fill="black"/>
</svg>
