<svg width="60" height="27" viewBox="0 0 60 27" fill="none" xmlns="http://www.w3.org/2000/svg">
<mask id="mask0_208_767" style="mask-type:luminance" maskUnits="userSpaceOnUse" x="0" y="0" width="60" height="27">
<path d="M59.7645 0.710938H0.953125V26.2195H59.7645V0.710938Z" fill="white"/>
</mask>
<g mask="url(#mask0_208_767)">
<path d="M36.5257 18.4298H44.543V21.6418H32.6562V5.14844H36.5257V18.4298Z" fill="white"/>
<path d="M53.0523 15.3615H56.2027V18.2476C55.6246 18.4648 54.4898 18.682 53.4139 18.682C49.9292 18.682 48.7704 16.9399 48.7704 13.4022C48.7704 10.0259 49.8736 8.03911 53.3551 8.03911C55.2952 8.03911 56.396 8.63865 57.3084 9.7819L59.7156 7.60394C58.2458 5.53966 55.6801 4.91406 53.2713 4.91406C47.8555 4.91194 45.0078 7.82116 45.0078 13.374C45.0078 18.8992 47.5809 21.8947 53.2422 21.8947C55.8419 21.8947 58.3826 21.243 59.7662 20.288V12.2857H53.0523V15.3615Z" fill="white"/>
<path fill-rule="evenodd" clip-rule="evenodd" d="M23.0695 4.43913C28.1274 9.42032 28.1276 17.4961 23.07 22.477C18.0125 27.4578 9.81228 27.4576 4.75449 22.4764C-0.303373 17.4953 -0.303622 9.4195 4.75399 4.43864C9.81154 -0.542209 18.0116 -0.542045 23.0695 4.43913ZM10.8088 10.7192C10.564 10.8819 10.2757 10.9695 9.98041 10.9709C9.78365 10.9714 9.58872 10.9337 9.40673 10.8599C9.22482 10.7862 9.05933 10.6779 8.91981 10.5412C8.78038 10.4046 8.66964 10.2422 8.59382 10.0633C8.51809 9.88444 8.47885 9.69263 8.47844 9.49885C8.47844 9.20803 8.56587 8.92374 8.72978 8.68186C8.89368 8.43989 9.12669 8.25126 9.39943 8.13959C9.67209 8.028 9.97228 7.99843 10.2619 8.05463C10.5517 8.11083 10.818 8.25036 11.0274 8.45549C11.2367 8.66062 11.3796 8.92219 11.4382 9.20729C11.4966 9.49232 11.4681 9.78812 11.356 10.0572C11.2441 10.3263 11.0536 10.5567 10.8088 10.7192ZM17.0771 17.867H14.4303V8.07339H13.4518V18.8336H14.4326V18.8272H17.0793L17.0771 17.867ZM17.0866 13.8692H23.6726L23.6719 13.896C23.4461 18.9565 19.1819 22.9902 13.9619 22.9902C8.59423 22.9902 4.24251 18.7262 4.24251 13.4681C4.24251 8.20996 8.59497 3.94669 13.9619 3.94669C14.1169 3.94669 14.2715 3.95004 14.4259 3.95682V3.00323C14.2715 2.99694 14.1164 2.99384 13.9605 2.99384C8.05531 2.99384 3.26835 7.67994 3.26835 13.4681C3.26835 19.2562 8.05679 23.943 13.9613 23.943C19.8657 23.943 24.6533 19.2541 24.6533 13.4688C24.6533 13.2805 24.6482 13.0945 24.6379 12.9084H17.0866V13.8692Z" fill="white"/>
</g>
</svg>
